<?xml version="1.0" encoding="utf-8"?>
<!-- Generator: Adobe Illustrator 23.1.0, SVG Export Plug-In . SVG Version: 6.00 Build 0)  -->
<svg version="1.1" xmlns="http://www.w3.org/2000/svg" xmlns:xlink="http://www.w3.org/1999/xlink" x="0px" y="0px"
	 viewBox="0 0 480 480" style="enable-background:new 0 0 480 480;" xml:space="preserve">
<style type="text/css">
	.st0{fill:#C79F66;}
	.st1{fill:#111318;}
</style>
<g id="Слой_2">
	<circle class="st0" cx="240" cy="240" r="240"/>
</g>
<g id="Слой_1">
	<path class="st1" d="M239.28,10c-27.36,27.58-54.69,55.12-84.21,84.88c6.59,0,11.59-0.27,16.56,0.04
		c31.22,1.95,63.11,0.7,93.49,6.86c45.41,9.2,78.55,36.94,98.02,80.08c2.03,4.49,8.84,9.09,13.81,9.55
		c14.11,1.29,28.41,0.45,42.32,0.45C358.93,130.9,299.49,70.84,239.28,10z"/>
	<path class="st1" d="M154.48,384.27c28.64,29.05,56.11,56.92,83.53,84.73c59.22-59.92,118.7-120.11,179.04-181.15
		c-15.33,0-31.43-0.36-47.48,0.35c-2.67,0.12-6.22,4.43-7.54,7.57c-25.63,61.12-76.06,83.89-137.67,88.24
		C201.52,385.63,178.48,384.27,154.48,384.27z"/>
	<path class="st1" d="M299.48,190.64c-15.54-37.71-75.06-58.01-135.72-46.34c0,14.92,0,30.05,0,46.34
		C209.15,190.64,254.17,190.64,299.48,190.64z"/>
	<path class="st1" d="M161.49,334.87c59.59,6.82,115.91-3.7,136.93-45.82c-45.84,0-90.96,0-136.93,0
		C161.49,304.31,161.49,319.06,161.49,334.87z"/>
	<path class="st1" d="M159.12,252.89c-17.07-14.75-20.42-38.17-43.22-48.45c0,23.6-0.24,43.26,0.3,62.89
		c0.07,2.45,4.23,4.78,6.49,7.17c1.07-0.63,2.14-1.26,3.22-1.89c0-14.18,0-28.37,0-44.59c18.21,12.98,20.42,38.2,43.04,47.43
		c0-24.28,0-45.66,0-67.68c-2.98,0-5.8,0-9.83,0C159.12,222.35,159.12,236.45,159.12,252.89z"/>
	<path class="st1" d="M402.56,204.22c0,23.33-0.14,42.95,0.21,62.57c0.04,2.11,2.94,4.17,4.52,6.26c1.69-2.02,4.69-3.96,4.83-6.09
		c0.59-8.84,0.24-17.75,0.38-26.63c0.06-3.67,0.47-7.33,0.78-11.86c16.61,13.41,19.28,37.53,41.63,46.97c0-24.12,0-45.26,0-67.32
		c-2.7-0.35-5.51-0.73-9.88-1.3c0,15.15,0,29.51,0,46.01C428.41,238.19,424.7,215.1,402.56,204.22z"/>
	<path class="st1" d="M356.54,206.7c-21.37-0.13-34.8,13.08-34.77,34.2c0.03,18.94,14.26,32.67,33.95,32.76
		c20.38,0.09,34.86-13.68,34.81-33.13C390.49,219.92,377.34,206.83,356.54,206.7z M379.92,240.58
		c-0.24,14.08-10.36,24.33-23.93,24.23c-14.06-0.1-24-10.9-23.62-25.67c0.36-13.81,10.96-24.08,24.47-23.69
		C370.32,215.85,380.16,226.56,379.92,240.58z"/>
	<path class="st1" d="M25.09,207.17c0,22.64,0,43.46,0,65.57c18.31,0.38,37.16,3.96,50.08-13.07c8.71-11.49,8.37-25.47,1.05-37.22
		C64.32,203.35,44.41,207.52,25.09,207.17z M44.86,264.53c-6.8,1.19-10.19-1.76-9.71-10.15c0.59-10.36-0.26-20.81,0.45-31.15
		c0.18-2.59,3.66-6.68,6.14-7.11c15.11-2.62,28.05,7.86,28.93,22.62C71.55,253.46,61.27,264.18,44.86,264.53z"/>
	<path class="st1" d="M216.7,271.64c0-9.16,0-18.33,0-28.84c16.53,7.66,20.75,29.68,43.98,31.23
		c-11.68-12.78-21.29-23.29-31.45-34.41c9.51-10.74,18.39-20.75,27.68-31.23c-11.66-4.63-15.62,4.26-21.07,9.98
		c-5.5,5.76-10.84,11.68-18.71,20.18c0-12.35,0-21.32,0-30.29c-1.38-0.75-2.77-1.5-4.15-2.25c-2.27,2.74-6.4,5.41-6.5,8.22
		c-0.61,17.38-0.59,34.8-0.01,52.18c0.09,2.76,4.14,5.39,6.36,8.08C214.12,273.55,215.41,272.59,216.7,271.64z"/>
	<path class="st1" d="M310.24,216.51c-2.11-3.59-2.91-6.65-4.88-7.98c-6.8-4.58-26.91-1.79-32.82,4.09
		c-7.06,7.02-6.14,18.84,2.82,25.13c5.6,3.93,12.64,5.77,18.3,9.63c3.02,2.06,6.84,7.2,6.07,9.56c-1.13,3.42-5.86,7.43-9.46,7.88
		c-7.06,0.87-14.4-0.56-25.41-1.28c3.69,4.02,5.65,8.14,8.01,8.39c8.72,0.91,18.01,2.18,26.23,0.04
		c4.95-1.29,11.19-8.38,11.62-13.33c0.48-5.51-3.83-12.67-8.15-17.03c-4.39-4.42-11.76-5.72-17.02-9.5
		c-2.9-2.09-6.22-6.98-5.56-9.69c0.73-3,5.56-6.5,9.01-6.99C294.9,214.58,301.12,215.9,310.24,216.51z"/>
	<path class="st1" d="M102.19,207.49c-3.45,0-6.08,0-9.38,0c0,21.66,0,43.08,0,65.07c3.16,0,5.99,0,9.38,0
		C102.19,250.96,102.19,229.88,102.19,207.49z"/>
	<path class="st1" d="M182.63,271.92c8.15,2.88,10.84,0.58,10.67-6.94c-0.36-16.56-0.34-33.14-0.01-49.71
		c0.15-7.5-2.66-9.65-10.67-7.08c0,10.54,0,21.25,0,31.96C182.63,250.53,182.63,260.91,182.63,271.92z"/>
	<path class="st1" d="M101.75,328.05c0-10.12,0-23.89,0-39.07c-14.5,0-28.67,0-38.79,0C74.69,300.8,88.76,314.96,101.75,328.05z"/>
	<path class="st1" d="M103.1,149.95C90.03,163,75.9,177.09,62.05,190.92c12.31,0,26.02,0,41.05,0
		C103.1,176.57,103.1,162.37,103.1,149.95z"/>
</g>
</svg>
