<?xml version="1.0" encoding="utf-8"?>
<!-- Generator: Adobe Illustrator 23.1.0, SVG Export Plug-In . SVG Version: 6.00 Build 0)  -->
<svg version="1.1" xmlns="http://www.w3.org/2000/svg" xmlns:xlink="http://www.w3.org/1999/xlink" x="0px" y="0px"
	 viewBox="0 0 480 480" style="enable-background:new 0 0 480 480;" xml:space="preserve">
<style type="text/css">
	.st0{fill:#111318;}
	.st1{fill:#C4B998;}
</style>
<g id="Слой_2">
	<circle class="st0" cx="240" cy="240" r="240"/>
</g>
<g id="Слой_1">
	<path class="st1" d="M239.59,54.16c-21.19,21.35-42.35,42.68-65.21,65.73c5.1,0,8.97-0.21,12.82,0.03
		c24.18,1.51,48.87,0.55,72.39,5.31c35.16,7.12,60.83,28.6,75.9,62.01c1.57,3.48,6.85,7.04,10.7,7.39c10.92,1,22,0.35,32.77,0.35
		C332.24,147.78,286.21,101.26,239.59,54.16z"/>
	<path class="st1" d="M175.54,360.23c22.18,22.5,43.45,44.07,64.68,65.61c45.86-46.4,91.92-93.01,138.64-140.28
		c-11.87,0-24.34-0.28-36.76,0.27c-2.07,0.09-4.82,3.43-5.84,5.86c-19.85,47.33-58.9,64.96-106.61,68.33
		C211.97,361.28,194.13,360.23,175.54,360.23z"/>
	<path class="st1" d="M286.21,194.04c-12.03-29.2-58.13-44.92-105.09-35.88c0,11.55,0,23.27,0,35.88
		C216.26,194.04,251.12,194.04,286.21,194.04z"/>
	<path class="st1" d="M180.97,321.98c46.14,5.28,89.75-2.87,106.03-35.48c-35.49,0-70.44,0-106.03,0
		C180.97,298.31,180.97,309.73,180.97,321.98z"/>
	<path class="st1" d="M159.12,252.89c-17.07-14.75-20.42-38.17-43.22-48.45c0,23.6-0.24,43.26,0.3,62.89
		c0.07,2.45,4.23,4.78,6.49,7.17c1.07-0.63,2.14-1.26,3.22-1.89c0-14.18,0-28.37,0-44.59c18.21,12.98,20.42,38.2,43.04,47.43
		c0-24.28,0-45.66,0-67.68c-2.98,0-5.8,0-9.83,0C159.12,222.35,159.12,236.45,159.12,252.89z"/>
	<path class="st1" d="M402.56,204.22c0,23.33-0.14,42.95,0.21,62.57c0.04,2.11,2.94,4.17,4.52,6.26c1.69-2.02,4.69-3.96,4.83-6.09
		c0.59-8.84,0.24-17.75,0.38-26.63c0.06-3.67,0.47-7.33,0.78-11.86c16.61,13.41,19.28,37.53,41.63,46.97c0-24.12,0-45.26,0-67.32
		c-2.7-0.35-5.51-0.73-9.88-1.3c0,15.15,0,29.51,0,46.01C428.41,238.19,424.7,215.1,402.56,204.22z"/>
	<path class="st1" d="M356.54,206.7c-21.37-0.13-34.8,13.08-34.77,34.2c0.03,18.94,14.26,32.67,33.95,32.76
		c20.38,0.09,34.86-13.68,34.81-33.13C390.49,219.92,377.34,206.83,356.54,206.7z M379.92,240.58
		c-0.24,14.08-10.36,24.33-23.93,24.23c-14.06-0.1-24-10.9-23.62-25.67c0.36-13.81,10.96-24.08,24.47-23.69
		C370.32,215.85,380.16,226.56,379.92,240.58z"/>
	<path class="st1" d="M25.09,207.17c0,22.64,0,43.46,0,65.57c18.31,0.38,37.16,3.96,50.08-13.07c8.71-11.49,8.37-25.47,1.05-37.22
		C64.32,203.35,44.41,207.52,25.09,207.17z M44.86,264.53c-6.8,1.19-10.19-1.76-9.71-10.15c0.59-10.36-0.26-20.81,0.45-31.15
		c0.18-2.59,3.66-6.68,6.14-7.11c15.11-2.62,28.05,7.86,28.93,22.62C71.55,253.46,61.27,264.18,44.86,264.53z"/>
	<path class="st1" d="M216.7,271.64c0-9.16,0-18.33,0-28.84c16.53,7.66,20.75,29.68,43.98,31.23
		c-11.68-12.78-21.29-23.29-31.45-34.41c9.51-10.74,18.39-20.75,27.68-31.23c-11.66-4.63-15.62,4.26-21.07,9.98
		c-5.5,5.76-10.84,11.68-18.71,20.18c0-12.35,0-21.32,0-30.29c-1.38-0.75-2.77-1.5-4.15-2.25c-2.27,2.74-6.4,5.41-6.5,8.22
		c-0.61,17.38-0.59,34.8-0.01,52.18c0.09,2.76,4.14,5.39,6.36,8.08C214.12,273.55,215.41,272.59,216.7,271.64z"/>
	<path class="st1" d="M310.24,216.51c-2.11-3.59-2.91-6.65-4.88-7.98c-6.8-4.58-26.91-1.79-32.82,4.09
		c-7.06,7.02-6.14,18.84,2.82,25.13c5.6,3.93,12.64,5.77,18.3,9.63c3.02,2.06,6.84,7.2,6.07,9.56c-1.13,3.42-5.86,7.43-9.46,7.88
		c-7.06,0.87-14.4-0.56-25.41-1.28c3.69,4.02,5.65,8.14,8.01,8.39c8.72,0.91,18.01,2.18,26.23,0.04
		c4.95-1.29,11.19-8.38,11.62-13.33c0.48-5.51-3.83-12.67-8.15-17.03c-4.39-4.42-11.76-5.72-17.02-9.5
		c-2.9-2.09-6.22-6.98-5.56-9.69c0.73-3,5.56-6.5,9.01-6.99C294.9,214.58,301.12,215.9,310.24,216.51z"/>
	<path class="st1" d="M102.19,207.49c-3.45,0-6.08,0-9.38,0c0,21.66,0,43.08,0,65.07c3.16,0,5.99,0,9.38,0
		C102.19,250.96,102.19,229.88,102.19,207.49z"/>
	<path class="st1" d="M182.63,271.92c8.15,2.88,10.84,0.58,10.67-6.94c-0.36-16.56-0.34-33.14-0.01-49.71
		c0.15-7.5-2.66-9.65-10.67-7.08c0,10.54,0,21.25,0,31.96C182.63,250.53,182.63,260.91,182.63,271.92z"/>
	<path class="st1" d="M134.71,316.69c0-7.83,0-18.5,0-30.25c-11.23,0-22.2,0-30.04,0C113.76,295.59,124.65,306.56,134.71,316.69z"/>
	<path class="st1" d="M134.14,162.53c-10.12,10.1-21.06,21.01-31.79,31.72c9.53,0,20.15,0,31.79,0
		C134.14,183.14,134.14,172.15,134.14,162.53z"/>
</g>
</svg>
